<svg xmlns="http://www.w3.org/2000/svg" xmlns:xlink="http://www.w3.org/1999/xlink" width="128" zoomAndPan="magnify" viewBox="0 0 96 95.999999" height="128" preserveAspectRatio="xMidYMid meet" version="1.0"><path stroke-linecap="round" transform="matrix(0.75, 0, 0, 0.75, 0.0000005, 0.000002)" fill-opacity="1" fill="#000000" fill-rule="nonzero" stroke-linejoin="miter" d="M 16 57 L 64.000003 74.000001 " stroke="#d87757" stroke-width="3" stroke-opacity="1" stroke-miterlimit="4"/><path stroke-linecap="butt" transform="matrix(0.75, 0, 0, 0.75, 0.0000005, 0.000002)" fill-opacity="1" fill="#ffffff" fill-rule="nonzero" stroke-linejoin="miter" d="M 126.802089 36.098958 C 126.802089 35.999999 126.802089 35.999999 126.802089 36.098958 C 126.802089 35.999999 126.802089 35.999999 126.802089 35.999999 C 126.697923 35.697916 126.500006 35.401041 126.302089 35.098957 C 126.000006 34.697916 125.500006 34.401041 125.000006 34.197916 C 125.000006 34.197916 125.000006 34.197916 124.901048 34.197916 L 76.901045 17.197915 C 75.598962 16.697915 74.098962 17.302082 73.302086 18.499998 L 64.000003 34.197916 L 54.598961 18.499998 C 53.901044 17.302082 52.401044 16.697915 51.000002 17.197915 L 2.999999 34.197916 C 2.197916 34.499999 1.499999 35.197916 1.197916 35.999999 C 0.901041 36.802083 0.999999 37.802083 1.401041 38.499999 L 13 57.802084 L 13 107.000003 C 13 108.302086 13.802083 109.401045 15 109.802086 L 63.000003 126.802087 C 63.098961 126.802087 63.197919 126.901046 63.302086 126.901046 C 63.401044 126.901046 63.401044 126.901046 63.500003 126.901046 C 63.598961 126.901046 63.697919 126.901046 63.901044 126.901046 L 64.000003 126.901046 C 64.197919 126.901046 64.302086 126.901046 64.500003 126.901046 L 64.598961 126.901046 C 64.697919 126.901046 64.802086 126.802087 65.000003 126.802087 L 113.000005 109.802086 C 114.197922 109.401045 115.000005 108.19792 115.000005 107.000003 L 115.000005 57.802084 L 126.598964 38.499999 C 126.697923 38.302083 126.802089 38.098958 126.802089 37.999999 L 126.802089 37.901041 C 126.901048 37.697916 126.901048 37.499999 126.901048 37.302083 C 127.000006 36.901041 127.000006 36.499999 126.802089 36.098958 Z M 8.5 38.598958 L 50.697919 23.598957 L 59.598961 38.401041 L 17.401042 53.401042 Z M 19 61.197917 L 61.000003 76.09896 L 61.000003 119.69792 L 19 104.802086 Z M 73.401045 52.5 L 62.697919 70.401043 L 25.000001 57 L 64.000003 43.197916 L 80.802087 49.098958 L 75.000003 51.098958 C 74.302087 51.401042 73.802087 51.901042 73.401045 52.5 Z M 106.598963 39.999999 L 89.802087 46 L 68.500003 38.499999 L 77.401045 23.697915 L 115.000005 36.999999 Z M 106.598963 39.999999 " stroke="#d87757" stroke-width="1" stroke-opacity="1" stroke-miterlimit="4"/></svg>