<svg xmlns="http://www.w3.org/2000/svg" viewBox="0 0 128 128" width="200" height="200">
  <!-- Linha decorativa -->
  <line x1="16" y1="57" x2="64" y2="74" stroke="#d87757" stroke-width="3" stroke-linecap="round"/>
  
  <!-- Caixa principal -->
  <path d="M126.8,36.1c0,-0.1 0,-0.1 0,0c0,-0.1 0,-0.1 0,-0.1v0c-0.1,-0.3 -0.3,-0.6 -0.5,-0.9c-0.3,-0.4 -0.8,-0.7 -1.3,-0.9c0,0 0,0 -0.1,0l-48,-17c-1.3,-0.5 -2.8,0.1 -3.6,1.3l-9.3,15.7l-9.4,-15.7c-0.7,-1.2 -2.2,-1.8 -3.6,-1.3l-48,17c-0.8,0.3 -1.5,1 -1.8,1.8c-0.3,0.8 -0.2,1.8 0.2,2.5l11.6,19.3v49.2c0,1.3 0.8,2.4 2,2.8l48,17v0c0.1,0 0.2,0.1 0.3,0.1c0.1,0 0.1,0 0.2,0c0.1,0 0.2,0 0.4,0h0.1c0.2,0 0.3,0 0.5,0h0.1c0.1,0 0.2,-0.1 0.4,-0.1v0l48,-17c1.2,-0.4 2,-1.6 2,-2.8v-49.2l11.6,-19.3c0.1,-0.2 0.2,-0.4 0.2,-0.5v-0.1c0.1,-0.2 0.1,-0.4 0.1,-0.6v0v0c0.1,-0.4 0.1,-0.8 -0.1,-1.2zM8.5,38.6l42.2,-15l8.9,14.8l-42.2,15zM19,61.2l42,14.9v43.6l-42,-14.9zM73.4,52.5l-10.7,17.9l-37.7,-13.4l39,-13.8l16.8,5.9l-5.8,2c-0.7,0.3 -1.2,0.8 -1.6,1.4zM106.6,40l-16.8,6l-21.3,-7.5l8.9,-14.8l37.6,13.3z" 
        fill="#d87757" stroke="#d87757" stroke-width="1"/>
</svg>